<svg xmlns="http://www.w3.org/2000/svg" xmlns:xlink="http://www.w3.org/1999/xlink" version="1.1" xml:space="preserve">
<desc>Created with Fabric.js 3.5.0</desc>
<defs>
</defs>
<rect x="0" y="0" width="100%" height="100%" fill="#ffffff"></rect>
<g transform="matrix(1 0 0 1 16.4141 13.2596)" id="972454">
<g style="">
		<g transform="matrix(1.2626 0 0 1.2626 -0.0003 -0.0002)" id="surface1" clip-path="url('#CLIPPATH_1')">
<clipPath id="CLIPPATH_1">
	<path transform="matrix(1 0 0 1 -0.125 0) translate(-25.5, -29)" id="clip1" d="M 13 23 L 38 23 L 38 35 L 13 35 Z M 13 23" stroke-linecap="round"></path>
</clipPath>
<path style="stroke: none; stroke-width: 1px; stroke-dasharray: none; stroke-linecap: butt; stroke-dashoffset: 0; stroke-linejoin: miter; stroke-miterlimit: 4; is-custom-font: none; font-file-url: none; fill: #116dbc; fill-rule: nonzero; opacity: 1" transform=" translate(-12.5, 7.5)" d="M 20.28125 -12.78125 L 24.65625 -8.40625 C 24.882813 -8.144531 25 -7.839844 25 -7.5 C 25 -7.164063 24.882813 -6.867188 24.65625 -6.609375 L 20.28125 -2.234375 C 20.019531 -1.992188 19.714844 -1.875 19.375 -1.875 C 19.039063 -1.875 18.742188 -1.992188 18.484375 -2.234375 C 18.242188 -2.492188 18.125 -2.789063 18.125 -3.125 C 18.125 -3.464844 18.242188 -3.769531 18.484375 -4.03125 L 22 -7.5 L 18.484375 -10.984375 C 18.242188 -11.242188 18.125 -11.539063 18.125 -11.875 C 18.125 -12.214844 18.242188 -12.519531 18.484375 -12.78125 C 18.742188 -13.007813 19.039063 -13.125 19.375 -13.125 C 19.714844 -13.125 20.019531 -13.007813 20.28125 -12.78125 Z M 6.53125 -10.984375 L 3.015625 -7.5 L 6.53125 -4.03125 C 6.757813 -3.769531 6.875 -3.464844 6.875 -3.125 C 6.875 -2.789063 6.757813 -2.492188 6.53125 -2.234375 C 6.269531 -1.992188 5.964844 -1.875 5.625 -1.875 C 5.289063 -1.875 4.992188 -1.992188 4.734375 -2.234375 L 0.359375 -6.609375 C 0.117188 -6.867188 0 -7.164063 0 -7.5 C 0 -7.839844 0.117188 -8.144531 0.359375 -8.40625 L 4.734375 -12.78125 C 4.992188 -13.007813 5.289063 -13.125 5.625 -13.125 C 5.964844 -13.125 6.269531 -13.007813 6.53125 -12.78125 C 6.757813 -12.519531 6.875 -12.214844 6.875 -11.875 C 6.875 -11.539063 6.757813 -11.242188 6.53125 -10.984375 Z M 6.53125 -10.984375" stroke-linecap="round"></path>
</g>
		<g transform="matrix(1.2626 0 0 1.2626 0.0023 -0.0003)" id="surface1">
<path style="stroke: none; stroke-width: 1px; stroke-dasharray: none; stroke-linecap: butt; stroke-dashoffset: 0; stroke-linejoin: miter; stroke-miterlimit: 4; is-custom-font: none; font-file-url: none; fill: #116dbc; fill-opacity: .4; fill-rule: nonzero; opacity: 1" transform=" translate(-12.5019, 7.5)" d="M 16.21875 -15.90625 L 11.21875 1.609375 C 11.113281 1.941406 10.914063 2.1875 10.625 2.34375 C 10.3125 2.496094 9.988281 2.539063 9.65625 2.46875 C 9.3125 2.363281 9.058594 2.164063 8.90625 1.875 C 8.75 1.5625 8.710938 1.238281 8.796875 0.90625 L 13.796875 -16.609375 C 13.898438 -16.941406 14.09375 -17.1875 14.375 -17.34375 C 14.683594 -17.496094 15.015625 -17.539063 15.359375 -17.46875 C 15.691406 -17.363281 15.9375 -17.164063 16.09375 -16.875 C 16.246094 -16.5625 16.289063 -16.238281 16.21875 -15.90625 Z M 16.21875 -15.90625" stroke-linecap="round"></path>
</g>
</g>
</g>
</svg>